# xmcd
#
# Track frame offsets: 
#        150
#        16574
#        17457
#        29841
#        31844
#        52773
#        57403
#        74556
#        80154
#        98547
#        101775
#        123135
#        127480
#        145021
#        145997
#        160982
#        161877
#
# Disc length: 2436 seconds
#
# Revision: 0
# Processed by: cddbd v1.5.2PL0 Copyright (c) Steve Scherf et al.
# Submitted via: ExactAudioCopyFreeDBPlugin 1.0
#
DISCID=e9098211
DTITLE=Mitch Woods - A tip of the hat to Fats
DYEAR=2019
DGENRE=Blues
TTITLE0=Solid Gold Cadillac
TTITLE1=Speaker Welcome
TTITLE2=Down Boy Down
TTITLE3=Spoken: Gonna Have A Ball
TTITLE4=Mojo Mambo
TTITLE5=Spoken: Thank You
TTITLE6=Crawfishin'
TTITLE7=Spoken:  Fats Dedication
TTITLE8=Blue Monday
TTITLE9=Spoken: Band Introduction
TTITLE10=Jambalaya
TTITLE11=Spoken: More Band Introductions
TTITLE12=Walking To New Orleans
TTITLE13=Spoken: Intro to Rocket 88
TTITLE14=Rocket 88
TTITLE15=Spoken: Intro To The House Of Blue Lights
TTITLE16=The House Of Blue Lights
EXTD=
EXTT0=
EXTT1=
EXTT2=
EXTT3=
EXTT4=
EXTT5=
EXTT6=
EXTT7=
EXTT8=
EXTT9=
EXTT10=
EXTT11=
EXTT12=
EXTT13=
EXTT14=
EXTT15=
EXTT16=
PLAYORDER=
